<?xml version="1.0" encoding="UTF-8" standalone="no"?>
<!-- Uploaded to: SVG Repo, www.svgrepo.com, Generator: SVG Repo Mixer Tools 
Public Domain
(As visual work) This license also might be referred as No copyright or CC0 1.0 Universal PD Dedication on our website.

The person who associated a work with this deed has dedicated the work to the public domain by waiving all of his or her rights to the work worldwide under copyright law, including all related and neighboring rights, to the extent allowed by law.

https://www.svgrepo.com/svg/45410/frog

-->

<svg
   fill="#000000"
   height="800px"
   width="800px"
   version="1.1"
   id="Layer_1"
   viewBox="0 0 512.003 512.003"
   xml:space="preserve"
   sodipodi:docname="toadb.svg"
   inkscape:version="1.1.2 (0a00cf5339, 2022-02-04)"
   xmlns:inkscape="http://www.inkscape.org/namespaces/inkscape"
   xmlns:sodipodi="http://sodipodi.sourceforge.net/DTD/sodipodi-0.dtd"
   xmlns="http://www.w3.org/2000/svg"
   xmlns:svg="http://www.w3.org/2000/svg"><defs
   id="defs21"><inkscape:path-effect
     effect="fill_between_many"
     method="originald"
     linkedpaths="#path10,0,1|"
     id="path-effect1062"
     join="true"
     close="true"
     autoreverse="true" /><inkscape:path-effect
     effect="fill_between_many"
     method="originald"
     linkedpaths="#path4,0,1"
     id="path-effect1066"
     join="true"
     close="true"
     autoreverse="true" /><inkscape:path-effect
     effect="fill_between_many"
     method="originald"
     linkedpaths="#path10,0,1|"
     id="path-effect1238"
     join="true"
     close="true"
     autoreverse="true" /></defs><sodipodi:namedview
   id="namedview19"
   pagecolor="#ffffff"
   bordercolor="#666666"
   borderopacity="1.0"
   inkscape:pageshadow="2"
   inkscape:pageopacity="0.0"
   inkscape:pagecheckerboard="0"
   showgrid="false"
   inkscape:zoom="1.0275"
   inkscape:cx="244.28224"
   inkscape:cy="400.48662"
   inkscape:window-width="1920"
   inkscape:window-height="1135"
   inkscape:window-x="1366"
   inkscape:window-y="24"
   inkscape:window-maximized="1"
   inkscape:current-layer="g12" />
<g
   id="g16">
	<g
   id="g14">
		<g
   id="g12">
			
			<path
   id="path1068"
   d="m 338.38672,49.216797 c -10.26743,0.198505 -20.21992,5.718046 -25.9668,14.205078 -0.25635,0.39793 -0.71683,1.096946 -1.0215,1.628072 -1.80354,2.999646 -3.09099,6.303245 -3.82811,9.723491 -0.12861,0.604076 -0.30202,1.514264 -0.40239,2.251431 -1.03833,6.937386 0.26558,14.198055 3.71294,20.313022 0.32853,0.586966 0.83286,1.437152 1.27608,2.098592 4.64938,7.087707 12.12661,12.314527 20.46677,13.968977 2.83903,0.59813 5.93387,0.78545 8.71613,0.60821 2.3125,-0.14487 4.69456,-0.56004 6.83008,-1.1582 0.6888,-0.20233 1.67214,-0.50516 2.45703,-0.80078 9.09697,-3.34965 16.38612,-11.0447 19.45117,-20.216799 0.13527,-0.407042 0.37681,-1.171194 0.52051,-1.723465 1.27404,-4.687285 1.43697,-9.660441 0.55371,-14.432785 -0.2156,-1.12164 -0.54021,-2.483801 -0.9127,-3.666883 -0.4473,-1.422061 -0.91259,-2.646491 -1.54281,-4.015962 -4.00574,-8.794041 -12.19292,-15.484996 -21.55038,-17.824203 -2.8537,-0.740861 -5.81552,-1.026569 -8.75973,-0.957796 z" />
			
			<path
   id="path8"
   style="stroke-width:6.40004;stroke-miterlimit:4;stroke-dasharray:none"
   d="m 171.25391,22.509766 c -15.15399,0.3065 -30.05081,6.802549 -40.64453,17.632812 -10.17199,10.294111 -16.42812,24.41288 -16.97129,38.896047 -0.0386,0.935552 -0.0642,1.872476 -0.0522,2.809031 -21.846451,10.702045 -40.163688,28.485274 -51.398521,50.073004 -7.940296,15.1831 -12.458928,32.1428 -13.109294,49.26489 -5.283487,5.31472 -7.702019,13.26212 -6.36142,20.62699 3.063282,24.16949 13.536874,47.34136 29.689358,65.58328 1.463134,1.66575 2.976889,3.28721 4.527531,4.87176 0.918913,7.68092 2.2984,15.31014 4.195312,22.81054 -17.51906,10.57157 -30.725007,28.03222 -36.136273,47.76488 -3.306926,11.8791 -3.839687,24.54309 -1.594195,36.64528 -6.26713,-5.071 -14.695032,-7.37422 -22.662203,-6.07272 -8.456595,1.26448 -16.1956504,6.51486 -20.50800319,13.89746 -4.30530011,7.15669 -5.27435651,16.21565 -2.51748801,24.10596 2.71601091,8.10134 9.2026863,14.83218 17.2185352,17.80422 3.800419,1.47462 7.907418,2.0374 11.970322,1.87817 15.711183,-0.0443 31.422385,-0.0799 47.133602,-0.10918 2.073094,9.2372 8.97461,17.24892 17.86257,20.55451 4.130534,1.58556 8.622687,2.14935 13.026107,1.82244 -2.35311,9.15694 0.0895,19.41484 6.44042,26.44307 5.98746,6.77154 15.27187,10.4668 24.27664,9.58523 9.09623,-0.79694 17.65513,-6.16193 22.30626,-14.0257 0.83583,-1.39044 1.55703,-2.85043 2.1466,-4.36197 9.56836,-6.31446 19.13672,-12.62891 28.70508,-18.94336 11.30257,-3.01847 20.70895,-12.18504 24.04289,-23.39624 0.27047,-0.85929 0.48048,-1.73584 0.68953,-2.61158 27.77948,6.72469 57.16147,6.7239 84.9414,0.002 2.47171,11.32264 10.96779,21.16637 21.90245,25.07889 1.32322,0.56615 2.82589,0.73864 3.96632,1.66994 9.19153,6.06549 18.38306,12.13099 27.57459,18.19648 3.77182,9.87653 13.34269,17.25405 23.86848,18.33249 9.1712,1.04734 18.76797,-2.56131 24.85917,-9.52381 5.89061,-6.60058 8.53446,-15.97517 6.82614,-24.67068 -0.10596,-0.59795 -0.24072,-1.19047 -0.39168,-1.77863 2.86149,0.15516 5.75305,0.12944 8.56045,-0.509 8.32219,-1.69661 15.78392,-7.24231 19.695,-14.79842 1.17554,-2.22978 2.06437,-4.61093 2.62932,-7.06758 16.82424,0.0236 33.64945,0.0962 50.47313,0.0709 10.09548,-0.47268 19.65535,-6.72193 24.21061,-15.73375 4.17893,-8.07436 4.2812,-18.14841 0.10885,-26.24803 -4.11592,-8.20637 -12.28296,-14.29389 -21.38992,-15.65602 -7.98769,-1.26705 -16.50269,0.92146 -22.76595,6.07079 3.4287,-18.27856 0.35927,-37.71528 -8.64619,-53.99783 -6.82558,-12.43702 -16.93637,-23.06808 -29.07647,-30.42014 1.88835,-7.50134 3.27891,-15.12756 4.19141,-22.80859 17.2945,-17.55663 29.11167,-40.43725 33.34059,-64.72163 0.58371,-3.44313 1.17081,-6.912 1.22455,-10.41036 -0.10658,-5.91069 -2.56785,-11.73509 -6.70967,-15.95004 -0.89433,-23.9438 -9.4207,-47.55975 -24.16306,-66.46301 -10.72378,-13.82243 -24.63197,-25.159854 -40.33499,-32.870978 0.11638,-14.976778 -5.78922,-29.889189 -16.10613,-40.74402 -9.79382,-10.422557 -23.45431,-17.164608 -37.72341,-18.378417 -13.93979,-1.27855 -28.30636,2.56627 -39.66476,10.770002 -12.03738,8.586269 -20.73709,21.793227 -23.62484,36.317279 -16.86719,0 -33.73438,0 -50.60157,0 -3.19077,-15.902972 -13.30149,-30.246967 -27.16389,-38.656952 -9.63475,-5.896549 -20.98831,-8.96699 -32.28532,-8.649688 z m 1.48242,23.648437 c 1.92465,0.0075 3.89561,0.175242 5.70703,0.464844 9.46493,1.500255 18.16231,7.075636 23.55501,14.98568 3.14073,4.527651 5.21133,9.935602 5.92267,15.475752 0.31714,1.989604 0.23996,4.0079 0.37464,6.00873 0.59671,5.269902 5.12417,9.859413 10.45046,10.298886 2.56285,0.239773 5.14052,0.0027 7.70972,0.09242 22.15714,-0.0092 44.31563,0.03627 66.47192,-0.03966 5.7585,-0.358794 10.78989,-5.55265 10.81775,-11.350352 0.0665,-2.814778 0.25479,-5.637978 0.93628,-8.379699 2.07996,-9.30871 8.16362,-17.587158 16.32953,-22.487692 9.88386,-6.050391 22.80533,-6.722881 33.26399,-1.730458 1.61196,0.750499 3.2029,1.659579 4.60373,2.592314 6.37645,4.245048 11.3624,10.576987 13.88071,17.821188 0.22778,0.680478 0.54487,1.649643 0.75781,2.458985 0.93442,3.436136 1.38538,7.245924 1.20091,10.906092 -0.0486,2.687044 -0.93569,5.356672 -0.38618,8.044158 0.67429,4.206123 3.89201,7.723838 7.83957,9.176699 6.41091,2.5697 12.48436,5.96427 18.14062,9.92188 4.71878,3.31837 9.28234,7.21385 13.28634,11.37111 8.46556,8.78797 15.17096,19.26578 19.5496,30.65819 0.94279,2.44756 1.84326,5.09931 2.58381,7.68656 1.29631,4.47805 2.2789,9.19887 2.87517,13.92672 -121.73828,0 -243.47656,0 -365.214842,0 0.373736,-2.9749 0.922676,-6.05394 1.572266,-8.90039 3.038607,-13.36554 9.237644,-26.39305 17.988307,-37.19146 3.811427,-4.72395 8.010209,-8.99581 12.663599,-12.89307 5.85623,-4.89943 12.36038,-9.0939 19.28943,-12.42417 2.43492,-1.20945 5.02536,-2.09793 7.41434,-3.394871 4.18595,-2.582796 6.37076,-7.929344 5.2593,-12.71194 -1.44053,-10.012715 1.67918,-20.582304 8.38112,-28.169649 0.77886,-0.88577 1.76375,-1.92268 2.7092,-2.781318 3.87381,-3.57833 8.54442,-6.297933 13.58377,-7.859307 0.49656,-0.153609 1.31593,-0.385053 1.84016,-0.512987 2.8,-0.695971 5.69851,-1.046349 8.64226,-1.063185 z M 66.15625,197.71875 c 126.60255,0.0113 253.20578,0.007 379.80859,0.0137 -0.82835,6.54969 -2.21176,13.04963 -4.28909,19.3258 -0.82061,2.5482 -1.87994,5.31 -2.90036,7.74451 -5.54235,13.14525 -13.97657,25.05174 -24.51367,34.66602 -0.84953,0.77544 -1.97176,1.74847 -2.83008,2.49219 -6.5549,5.53163 -13.80565,10.24368 -21.54687,13.93945 -3.75172,1.78787 -7.74758,3.39388 -11.74992,4.70354 -4.44552,1.45923 -9.22629,2.66788 -13.94019,3.48306 -4.33919,0.75173 -8.69268,1.22357 -13.03289,1.40043 -6.37466,0.20891 -12.75382,0.0415 -19.13052,0.0967 -56.26347,-4.6e-4 -112.52722,0.0106 -168.79052,-0.0268 -3.46745,-0.0545 -6.93042,-0.30268 -10.37354,-0.71349 -1.32121,-0.16997 -2.8744,-0.38924 -4.27735,-0.62109 -15.65122,-2.59672 -30.6573,-8.98641 -43.3398,-18.52414 -16.747781,-12.51054 -29.426926,-30.40988 -35.496451,-50.42794 -0.686258,-2.23397 -1.335275,-4.64652 -1.859058,-6.93464 -0.808377,-3.52437 -1.40861,-7.00941 -1.824219,-10.62305 z m 39.74609,96.4707 c 12.52182,6.83079 26.23546,11.47486 40.33789,13.625 -6.60329,7.27528 -10.34938,17.09806 -10.1087,26.93437 -0.017,5.64621 -0.005,11.29246 -0.008,16.93868 -3.61704,-4.26914 -6.93231,-8.65186 -10.07478,-13.28627 -7.80268,-11.53446 -14.16846,-24.28155 -18.59026,-37.56904 -0.78043,-2.30897 -1.49131,-4.64103 -2.16699,-6.98258 0.20377,0.11328 0.40755,0.22656 0.61132,0.33984 z m 300.55664,0.51758 c -2.93132,10.09207 -6.88016,19.89354 -11.78329,29.15284 -4.56666,8.65241 -10.09487,17.08587 -16.25541,24.74199 -0.85188,1.06303 -1.68398,2.069 -2.55114,3.0915 -0.0197,-6.82413 0.0807,-13.65177 -0.094,-20.47349 -0.59695,-8.6301 -4.21244,-17.00325 -10.02128,-23.40542 14.33116,-2.1863 28.26451,-6.94135 40.94726,-13.96289 -0.0807,0.28516 -0.16146,0.57031 -0.24219,0.85547 z M 306.50977,309.25 c -5.95826,7.24268 -9.20561,16.67102 -8.86403,26.05273 -0.0369,22.17707 -0.009,44.35417 -0.0168,66.53125 -3.90055,1.07938 -7.86048,1.99814 -11.77506,2.7548 -16.03837,3.09848 -32.69534,3.67309 -48.97563,1.68752 -4.15466,-0.51081 -8.18944,-1.16103 -12.31025,-2.00168 -3.34757,-0.67708 -6.83953,-1.51087 -10.20078,-2.44064 -0.009,-23.16882 0.0374,-46.33842 -0.0403,-69.50675 -0.32851,-8.38312 -3.52313,-16.60247 -8.84442,-23.07723 33.67578,0 67.35156,0 101.02735,0 z m 117.37304,9.67578 c 11.99721,9.25152 20.13375,23.37895 21.95914,38.43339 0.95344,7.59908 0.40425,15.50799 -1.73763,22.93199 -0.93485,3.32888 -2.25669,6.53095 -3.63358,9.69496 -1.81018,5.17085 0.58646,11.42834 5.41563,14.03486 2.50526,1.45348 5.48435,1.66697 8.31519,1.52004 6.32201,-0.0243 12.64913,0.0763 18.96774,-0.0803 3.9915,-0.40206 7.54627,-3.0673 9.37788,-6.58822 1.79395,-2.51303 5.91758,-2.88102 8.03154,-0.56992 1.88163,1.83854 2.16712,5.11992 0.38591,7.12481 -1.2008,1.49942 -3.18317,2.23185 -5.07518,2.00946 -17.59531,-0.0388 -35.19062,-0.0777 -52.78593,-0.11653 -5.59081,-7.73927 -15.20034,-12.38974 -24.74662,-11.87255 -7.29169,0.33056 -14.42382,3.52476 -19.48385,8.79247 -4.33394,-0.025 -8.66797,-0.009 -13.00196,-0.0117 0,-6.24545 0,-12.49089 0,-18.73633 20.65532,-18.31343 37.08522,-41.41385 47.38282,-67.03907 0.20963,0.15756 0.41927,0.31511 0.6289,0.47266 z M 88.824219,318.69531 c 10.33298,25.51631 26.693411,48.55181 47.298831,66.79492 0,6.2461 0,12.49219 0,18.73829 -4.33724,0 -8.67448,0 -13.01172,0 -6.71454,-7.01311 -17.11565,-10.24893 -26.619302,-8.22278 -6.995111,1.4321 -13.407082,5.5447 -17.605309,11.32238 -18.117,0.006 -36.235285,0.0932 -54.35144,0.0739 -2.7423,-0.24296 -4.996213,-3.09016 -4.699341,-5.70472 0.186613,-2.99088 3.231594,-5.49609 6.212785,-4.87853 1.83924,0.29314 3.401014,1.61497 4.159466,3.29156 2.333257,3.67934 6.792616,5.78415 11.113295,5.43037 6.810163,-0.039 13.624957,0.0875 20.432041,-0.0863 5.472196,-0.58843 10.104558,-5.48621 10.352598,-10.9919 0.210326,-2.72113 -0.789457,-5.33521 -1.956777,-7.73786 -3.5917,-8.45896 -4.999784,-17.80377 -4.248955,-26.95315 0.09917,-1.14024 0.247418,-2.52779 0.435663,-3.75707 2.161954,-14.80867 10.417303,-28.59293 22.396368,-37.55152 0.0306,0.0775 0.0612,0.15495 0.0918,0.23242 z m 86.691401,-0.10351 c 5.98688,0.0274 11.72,3.95501 13.99024,9.48047 0.44816,1.01509 0.80697,2.33103 0.98437,3.52148 0.43508,2.97598 0.12813,5.99074 0.21524,8.98477 -0.008,26.26542 0.034,52.5322 -0.0419,78.79676 -0.31216,4.88848 -4.24743,9.28924 -9.09018,10.0926 -1.96614,0.41522 -3.76265,1.3636 -5.36631,2.55247 -9.86947,6.51202 -19.75456,13.0011 -29.60158,19.54606 2.13451,-1.42829 3.95219,-3.40652 4.83027,-5.85154 1.86917,-4.79727 0.19717,-10.74739 -4.0278,-13.74186 -2.53466,-1.90518 -5.80938,-2.54717 -8.92513,-2.3149 -11.70213,0.0113 -23.40812,-0.0412 -35.10781,0.047 -2.92764,0.61997 -6.160985,-1.62171 -6.380883,-4.65634 -0.311376,-2.65199 1.58312,-5.40082 4.261363,-5.83582 2.18578,-0.45617 4.60384,0.57535 5.66379,2.56825 1.03084,1.66327 2.29021,3.22695 3.99558,4.23788 2.40855,1.56539 5.35465,2.07801 8.18671,1.87535 10.05681,-0.0262 20.11717,0.069 30.17165,-0.0688 5.69125,-0.52753 10.55166,-5.75273 10.49405,-11.50105 0.0571,-4.32031 0.002,-8.64249 0.0231,-12.96365 0.007,-23.4373 -0.0311,-46.87596 0.0403,-70.31238 0.32115,-6.68684 5.54187,-12.76237 12.10034,-14.09456 1.17591,-0.25688 2.38123,-0.3745 3.58462,-0.3622 z m 161.6211,0 c 6.66737,0.0823 12.95321,5.00325 14.55031,11.49196 0.86562,3.29825 0.41931,6.73313 0.52352,10.09788 0.009,25.62355 -0.0349,51.24844 0.0399,76.87114 0.36319,5.77537 5.58775,10.81591 11.40534,10.81342 3.89552,0.0701 7.79301,-3.1e-4 11.68948,0.0283 6.89976,-0.0104 13.80445,0.0572 20.70094,-0.0803 4.00198,-0.40125 7.56256,-3.07768 9.39125,-6.6111 1.78509,-2.42084 5.74021,-2.85366 7.89125,-0.67756 1.96551,1.8122 2.33725,5.14359 0.57203,7.21919 -1.2208,1.57486 -3.31701,2.32643 -5.26681,1.97649 -3.88423,-0.15692 -7.77365,-0.01 -11.66014,-0.0639 -8.89506,0.0163 -17.79379,-0.0535 -26.68643,0.0743 -5.55064,0.53626 -10.28821,5.51127 -10.47717,11.09889 -0.2396,3.84477 1.58618,7.70428 4.60579,10.06989 -10.30162,-6.77649 -20.55868,-13.62514 -30.91056,-20.32122 -2.25321,-1.24084 -5.02442,-1.17902 -7.14023,-2.72175 -3.40451,-2.20249 -5.38778,-6.34058 -5.06642,-10.37226 0.008,-28.14939 -0.0275,-56.29968 0.037,-84.4485 0.3383,-6.60313 5.43527,-12.64012 11.90844,-14.03512 1.27349,-0.3018 2.58506,-0.42131 3.89249,-0.40974 z M 144.58398,452.91016 c 0.64253,-0.45471 0.87782,-0.56934 0.0587,-0.0391 z m -1.7832,1.18359 c -2.63904,1.93148 -4.17189,5.04705 -4.70898,8.2168 -0.99769,2.87825 -4.71857,4.46364 -7.43127,2.97398 -2.52756,-1.2303 -3.77888,-4.61468 -2.40191,-7.12385 1.00692,-2.0688 3.41889,-3.44231 5.71467,-2.90523 1.64072,0.29585 3.43044,0.52699 5.12437,0.14299 1.58198,-0.2953 3.0744,-0.95844 4.4414,-1.79492 -0.24609,0.16341 -0.49219,0.32682 -0.73828,0.49023 z m 226.47656,-0.0332 c 2.39646,1.41096 5.29218,1.85992 8.01299,1.31304 1.28117,-0.24193 2.66019,-0.398 3.85645,0.25174 2.22722,1.024 3.65395,3.63663 3.00884,6.05424 -0.56285,2.61382 -3.2673,4.57124 -5.93564,4.1033 -2.23399,-0.30234 -4.15166,-2.09531 -4.53443,-4.32975 -0.40848,-2.17026 -1.35881,-4.24103 -2.875,-5.86132 -0.6305,-0.69117 -1.34529,-1.30005 -2.09375,-1.85938 0.18685,0.10938 0.37369,0.21875 0.56054,0.32813 z" />
			<path
   inkscape:original-d="M 0,0"
   inkscape:path-effect="#path-effect1238"
   d="m 172.09961,49.21875 c -12.47147,0.09442 -24.4423,8.198451 -29.22519,19.707554 -2.40339,5.646329 -3.11692,11.97688 -2.142,18.028774 0.0923,0.578246 0.25854,1.471339 0.42375,2.159293 1.66513,7.392512 6.16695,14.042679 12.23641,18.543829 0.70524,0.51643 1.65235,1.17853 2.49606,1.68595 5.61333,3.47669 12.31034,5.14483 18.89879,4.68129 5.67219,-0.34962 11.33015,-2.26299 16.08439,-5.48843 2.08594,-1.41293 3.90163,-2.95986 5.60084,-4.80459 1.14632,-1.22765 2.32293,-2.71846 3.29492,-4.189451 4.00828,-6.010614 5.94732,-13.379235 5.28679,-20.583577 -0.68108,-8.313793 -4.68084,-16.322751 -11.02507,-21.760173 -0.70577,-0.612618 -1.64105,-1.368941 -2.49508,-1.964587 -5.55284,-3.954494 -12.53885,-6.21242 -19.43461,-6.015882 z"
   id="path1240" /><path
   id="path10"
   style="fill:#000000;fill-opacity:1"
   d="m 172.09961,49.21875 c -12.47147,0.09442 -24.4423,8.198451 -29.22519,19.707554 -2.40339,5.646329 -3.11692,11.97688 -2.142,18.028774 0.0923,0.578246 0.25854,1.471339 0.42375,2.159293 1.66513,7.392512 6.16695,14.042679 12.23641,18.543829 0.70524,0.51643 1.65235,1.17853 2.49606,1.68595 5.61333,3.47669 12.31034,5.14483 18.89879,4.68129 5.67219,-0.34962 11.33015,-2.26299 16.08439,-5.48843 2.08594,-1.41293 3.90163,-2.95986 5.60084,-4.80459 1.14632,-1.22765 2.32293,-2.71846 3.29492,-4.189451 4.00828,-6.010614 5.94732,-13.379235 5.28679,-20.583577 -0.68108,-8.313793 -4.68084,-16.322751 -11.02507,-21.760173 -0.70577,-0.612618 -1.64105,-1.368941 -2.49508,-1.964587 -5.55284,-3.954494 -12.53885,-6.21242 -19.43461,-6.015882 z m 0.80273,10.857422 c 9.49555,-0.05359 18.5667,6.980459 20.72811,16.25367 1.96097,7.513604 -0.50124,16.035752 -6.32559,21.212989 -5.24359,4.844159 -12.98012,6.885219 -19.89996,5.016299 -7.52031,-1.88631 -13.82877,-8.096238 -15.59981,-15.678031 -1.82667,-7.091976 0.25877,-15.090504 5.48566,-20.258206 3.86778,-4.036845 9.36071,-6.446301 14.9544,-6.527244 0.21901,-0.005 0.43835,-0.01826 0.65719,-0.01948 z" />
		</g>
	</g>
</g>
</svg>
